<svg version="1.1" id="Layer_1" xmlns="http://www.w3.org/2000/svg" xmlns:xlink="http://www.w3.org/1999/xlink" x="0px" y="0px"
	 width="100%" viewBox="0 0 1024 1024" enable-background="new 0 0 1024 1024" xml:space="preserve">
<path fill="#000000" opacity="1.000000" stroke="none" 
	d="
M708.388306,868.450745 
	C664.308838,893.007751 617.232117,907.660889 567.926208,914.898438 
	C528.178650,920.732910 488.317108,920.410156 448.534393,913.654785 
	C388.196106,903.409119 332.421906,881.793823 281.680817,847.554443 
	C232.716400,814.513977 193.074722,772.482483 162.870483,721.745605 
	C137.622665,679.334473 122.307686,633.279236 113.524696,584.820557 
	C108.151985,555.177490 105.769745,525.401550 106.862022,495.336945 
	C107.545868,476.514313 110.187813,457.901001 113.674225,439.412689 
	C123.965012,384.841248 144.254501,334.288849 175.867722,288.595337 
	C230.099167,210.209595 302.425537,155.682266 393.177582,126.083504 
	C422.049194,116.667038 451.742950,110.645653 481.999542,107.910805 
	C507.304199,105.623566 532.517761,107.182426 557.742188,110.254150 
	C595.020386,114.793716 631.046753,123.981720 665.522888,138.658798 
	C710.130066,157.648834 751.204590,182.401138 786.750061,215.798828 
	C817.428162,244.623230 844.095825,276.614319 864.990662,313.268372 
	C887.446777,352.661316 902.650452,394.663696 911.492554,439.150665 
	C918.001038,471.896088 919.785889,504.897064 917.876404,538.032654 
	C915.769897,574.585266 908.015381,610.221924 896.845154,645.062683 
	C876.957336,707.094604 843.159241,760.509644 796.083984,805.423096 
	C769.915222,830.390137 740.672852,851.265808 708.388306,868.450745 
M811.679993,732.873779 
	C812.491699,732.704407 813.334167,732.300476 814.110291,732.402344 
	C820.770996,733.276489 821.206177,727.307983 823.199402,723.631775 
	C824.857117,720.574585 823.711731,717.431519 820.560059,714.925903 
	C816.831848,711.962097 812.955872,709.202881 809.457092,705.849182 
	C802.022034,698.722351 799.998230,698.912903 795.006592,705.026611 
	C757.789856,750.609924 711.457214,784.588318 659.293579,810.942505 
	C644.885864,818.221619 649.141907,819.533020 639.597290,805.127136 
	C635.569580,799.048035 635.781372,798.865295 642.184509,795.708252 
	C643.631287,794.994934 645.374084,794.640259 646.164124,792.978027 
	C633.650269,767.996399 634.753113,756.049561 636.532715,742.451843 
	C638.919189,724.217468 647.866150,709.581909 662.176880,698.234558 
	C673.917358,688.925232 687.451172,683.876160 702.386353,683.873352 
	C727.270264,683.868713 746.716797,695.198364 761.681641,714.866882 
	C763.035889,713.775391 763.898376,713.268860 764.518982,712.552673 
	C785.678162,688.135620 804.528931,662.055786 817.685547,632.459656 
	C832.151306,599.918518 839.395508,565.437500 841.676880,529.946228 
	C842.446350,517.975769 842.165833,517.957825 854.214172,517.932312 
	C854.880859,517.930908 855.559631,518.011169 856.212219,517.914307 
	C860.291321,517.309082 862.886475,518.679688 865.003967,522.546204 
	C868.276123,528.520935 874.112915,530.802795 880.693848,530.009949 
	C887.884338,529.143616 893.579346,522.798218 894.560913,515.491028 
	C895.314697,509.880157 890.554626,502.063843 884.719177,499.330231 
	C878.585449,496.456848 871.152222,497.675995 866.639343,503.432281 
	C863.416260,507.543335 859.849915,508.798279 855.053589,508.281616 
	C853.242493,508.086517 851.390381,508.255310 849.557373,508.283539 
	C843.046204,508.383820 841.925720,507.487549 841.863159,500.990112 
	C841.676147,481.563385 838.482788,462.509277 834.354553,443.640625 
	C819.919189,377.660889 788.139587,321.068939 739.862488,274.101410 
	C689.737671,225.336243 629.868286,195.100662 560.737366,183.538055 
	C549.210022,181.610031 537.564453,181.045990 525.931885,180.468170 
	C519.859619,180.166534 519.329773,181.009460 519.273621,186.919556 
	C519.246704,189.752502 519.395325,192.598480 519.173462,195.415619 
	C518.819702,199.908142 515.591370,202.641785 511.115265,202.519989 
	C506.972229,202.407242 504.495148,199.523163 504.527863,194.819946 
	C504.549866,191.654190 504.505341,188.483810 504.665131,185.324326 
	C504.830841,182.047806 503.251312,180.805099 500.164642,180.897293 
	C492.835999,181.116196 485.464203,180.855911 478.183350,181.554855 
	C424.223572,186.734818 375.465057,206.238495 330.754425,236.239929 
	C288.382050,264.672394 255.200836,301.849579 229.193680,345.545166 
	C201.499084,392.075897 186.771240,442.599823 183.405624,496.524506 
	C182.665817,508.377930 182.811066,508.212494 171.125168,508.446472 
	C165.890671,508.551300 161.984238,507.766449 158.321487,503.102814 
	C152.672867,495.910614 141.293533,496.263519 135.267822,502.783936 
	C128.672531,509.920807 129.338226,520.863220 136.718582,526.630554 
	C144.140381,532.430237 154.580139,530.761597 159.617172,522.437073 
	C161.754898,518.904053 164.149109,517.563171 168.046814,517.833435 
	C171.365311,518.063538 174.710556,517.885864 178.043076,517.941528 
	C181.381683,517.997253 183.173035,519.417419 183.354523,523.072205 
	C184.064270,537.365417 185.791992,551.539368 188.327286,565.638550 
	C193.363678,593.646973 201.190674,620.727600 214.545212,645.988708 
	C226.673157,668.929749 241.528763,689.982178 258.839203,709.326416 
	C264.093842,715.198486 263.978424,715.246399 269.109222,709.258789 
	C286.585571,688.864075 308.605408,679.956726 335.125244,685.326294 
	C378.834869,694.176331 402.635773,740.508850 382.911926,783.869995 
	C381.547607,786.869263 379.997498,789.783997 378.642487,792.518616 
	C379.869537,794.767822 381.831696,794.987366 383.515411,795.506348 
	C387.446533,796.718384 388.647919,798.835388 386.442535,802.575562 
	C384.497498,805.874146 382.585541,809.202942 380.876068,812.626770 
	C379.047089,816.289917 376.724670,816.619812 373.175018,814.854309 
	C329.486145,793.125183 288.792511,767.148193 254.480881,731.980225 
	C246.093307,723.383301 238.095566,714.458008 230.381348,705.261230 
	C225.385925,699.305725 224.828430,699.339722 218.538788,703.454407 
	C213.862579,706.513550 211.910477,711.782593 208.680222,715.932800 
	C206.036316,719.329590 209.677536,723.357056 211.819199,726.736572 
	C213.775711,729.824097 216.048004,728.163696 218.386765,727.434692 
	C220.019135,726.925842 221.783249,726.518921 223.773132,727.674744 
	C219.966293,731.602844 214.284882,732.640686 211.490341,737.619019 
	C216.752518,743.968262 221.907104,750.187744 227.034241,756.374023 
	C230.681793,754.415283 232.387146,751.374451 234.985626,749.324463 
	C238.650345,746.433350 243.377396,746.568542 246.256668,749.692078 
	C249.140381,752.820435 248.912628,756.779175 245.624817,760.383057 
	C245.063873,760.997925 244.433670,761.549072 243.858749,762.151855 
	C237.669540,768.640808 237.666931,768.645874 244.090485,775.117188 
	C263.533905,794.705200 284.961792,811.852722 308.052002,826.931091 
	C315.387177,831.721008 322.790863,836.428772 330.573456,840.237793 
	C336.921936,832.813416 340.082245,832.258667 346.877258,836.870972 
	C349.086914,838.370911 350.574860,840.635925 349.204010,842.773438 
	C345.471588,848.593262 349.831482,849.791992 353.596802,851.583130 
	C355.853088,852.656494 358.139557,853.703552 360.268280,854.999268 
	C363.559906,857.002686 365.442261,856.118652 367.349731,852.824219 
	C376.364594,837.255188 385.436035,821.713135 394.822052,806.366089 
	C406.552307,787.186035 412.546661,766.700012 410.722839,744.067871 
	C409.225616,725.489136 404.900818,707.863647 393.737244,692.581543 
	C367.887573,657.195374 341.845490,621.949768 315.972168,586.580811 
	C313.408325,583.075928 310.269623,580.846985 306.347321,579.047180 
	C281.602631,567.692627 268.319885,544.600830 269.072357,519.537048 
	C269.926971,491.070984 288.778870,468.811646 316.400238,461.495483 
	C319.555145,460.659882 322.732239,459.908173 325.930420,459.109711 
	C321.396484,445.877075 308.308746,432.978607 292.007416,428.245697 
	C262.426117,419.657104 238.995712,428.477905 223.036652,456.682922 
	C222.765198,454.797058 222.545059,454.153625 222.602448,453.535950 
	C223.871140,439.878693 227.408173,426.720245 231.433151,413.672272 
	C232.016159,411.782288 233.437546,410.657654 235.165726,409.867279 
	C251.928741,402.200928 269.394012,398.844482 287.674866,402.313568 
	C313.365540,407.188782 332.954163,420.899780 345.979706,443.749786 
	C346.919617,445.398560 347.380188,447.540466 349.906952,448.404480 
	C359.725861,439.886169 370.870331,433.464508 384.036804,430.617096 
	C383.733643,429.400696 383.677612,428.552216 383.325317,427.853027 
	C373.210785,407.781006 370.341248,386.337372 371.773773,364.232697 
	C372.824890,348.013824 376.159027,332.178772 383.628571,317.604736 
	C406.968140,272.066223 444.159180,246.501663 495.151886,241.588943 
	C532.729370,237.968689 565.612732,249.629013 593.688782,274.345825 
	C612.732300,291.110870 625.923096,311.948120 632.256836,336.763153 
	C633.099365,340.064331 635.234497,342.126190 638.027405,343.111328 
	C640.938232,344.138031 641.914429,341.059631 643.077209,339.236450 
	C644.859863,336.441376 647.357483,335.885071 650.347290,335.831085 
	C658.034729,335.692261 658.033813,335.640869 658.999390,328.098236 
	C664.170349,330.241150 669.407715,329.279846 674.611206,328.505493 
	C680.294067,327.659790 685.623901,327.485565 688.749756,333.672852 
	C693.411682,331.548340 696.655334,328.148071 700.199219,325.194244 
	C706.820190,319.675659 710.131409,319.416382 717.022949,324.563141 
	C720.293701,327.005798 723.368713,328.862762 727.008667,324.481689 
	C729.091187,330.884094 733.600037,332.143341 739.032715,331.605682 
	C746.735229,330.843353 752.497681,334.134125 757.237000,339.952057 
	C761.784180,345.533966 765.775208,351.484772 769.094238,357.834900 
	C770.894897,361.280060 772.375549,363.069763 776.698792,361.080627 
	C780.437073,359.360626 784.542480,360.477753 786.821533,364.167236 
	C788.920227,367.564789 788.864380,371.661743 785.306335,374.016022 
	C780.467712,377.217682 781.385803,380.491486 783.836487,384.433563 
	C784.794800,385.975006 785.378479,387.753113 786.100342,389.437347 
	C798.501099,418.368378 805.037903,448.604736 806.430054,480.018097 
	C806.631775,484.570557 807.013794,488.940338 810.511536,492.897125 
	C814.747742,497.689331 811.162659,504.747223 804.561279,505.064819 
	C796.745605,505.440826 788.899902,505.329468 781.070129,505.220123 
	C776.445190,505.155579 773.852905,502.405701 772.680176,498.039490 
	C771.650635,494.206421 773.838989,491.379150 775.282837,488.216675 
	C778.497253,481.175873 779.232544,473.399536 775.173218,471.066010 
	C769.661255,467.897369 767.950134,463.323059 768.716553,457.205872 
	C769.233154,453.081879 767.911987,449.508118 763.314941,448.310059 
	C759.146912,447.223816 752.168884,449.889252 750.564026,453.128021 
	C749.839966,454.589325 748.796265,456.124146 749.662048,457.853027 
	C755.239197,468.990845 755.827759,481.628113 760.300049,493.093140 
	C760.933228,494.716187 761.283691,496.387451 760.209351,497.869751 
	C758.300415,500.503479 758.445068,503.518677 758.314636,506.500427 
	C756.980408,537.010681 743.241333,560.140320 716.997375,575.770935 
	C715.062500,576.923340 713.531128,578.274841 712.379639,580.174805 
	C702.264404,596.864807 690.247375,612.228638 678.868713,628.033203 
	C662.905334,650.205688 645.131470,671.132812 630.632507,694.281982 
	C610.434448,726.530518 606.897522,760.818909 623.859985,795.609497 
	C630.695190,809.628784 639.793152,822.544800 647.861084,835.963135 
	C651.380920,841.817200 654.939880,847.648254 658.399841,853.537415 
	C659.804749,855.928589 661.400513,856.780273 664.101135,855.405090 
	C667.659058,853.593384 671.367920,852.079102 675.000244,850.411621 
	C677.394287,849.312500 678.950195,848.034363 677.028442,845.084778 
	C674.980164,841.940979 676.356384,839.447083 679.097961,837.384216 
	C685.334656,832.691589 688.477905,833.255493 694.599365,840.465149 
	C705.314941,835.540833 714.845093,828.559143 724.602356,821.960632 
	C745.074768,808.115662 763.751404,792.077271 781.724060,775.173645 
	C788.265747,769.020935 788.324280,768.880676 781.732849,762.450317 
	C781.017334,761.752319 780.292053,761.060181 779.625793,760.316528 
	C776.526245,756.856995 776.505188,752.899780 779.545105,749.677917 
	C782.242615,746.818848 786.589661,746.391479 789.877808,748.967285 
	C792.725830,751.198242 795.326904,753.744507 798.468018,756.534180 
	C802.664124,751.448486 806.645142,746.376099 810.905701,741.550537 
	C813.551270,738.554138 813.917053,735.878967 811.004089,732.999451 
	C811.004089,732.999451 810.982971,733.025452 811.679993,732.873779 
M463.731140,459.219147 
	C434.347107,465.598236 420.320709,488.495667 421.721161,512.242676 
	C423.227203,537.779907 442.541107,564.496033 477.180664,563.786682 
	C511.651855,563.080688 546.149231,562.803284 580.622070,563.279480 
	C612.285461,563.716858 643.944702,563.628052 675.600952,563.532288 
	C697.543701,563.465942 714.838684,553.743896 726.174683,534.768677 
	C742.643677,507.201691 736.533447,470.519318 712.760132,448.927612 
	C698.472961,435.951538 682.498291,428.522675 662.832581,431.148346 
	C659.549805,431.586670 658.572510,429.915100 657.685486,427.201569 
	C646.593262,393.268158 609.941833,370.412994 574.613220,375.299377 
	C532.601990,381.110077 504.857910,421.370026 514.586487,462.577423 
	C515.372375,465.906464 515.287048,468.118927 512.026855,470.122131 
	C508.621490,472.214508 506.397369,471.888763 503.320465,469.254395 
	C492.133789,459.676544 479.016083,456.679810 463.731140,459.219147 
M422.924072,819.268921 
	C424.472198,819.875549 425.994324,820.561829 427.572296,821.077148 
	C478.248871,837.625854 529.407104,839.420715 581.036438,825.977661 
	C588.374573,824.066956 595.663269,821.947083 602.718811,818.712769 
	C602.261230,817.329102 602.122437,816.490845 601.732910,815.792664 
	C590.944763,796.458862 586.581482,775.924683 586.201660,753.614746 
	C585.767151,728.100525 571.895691,709.758850 548.314514,699.589905 
	C531.139221,692.183411 513.018311,691.757080 494.800201,694.363037 
	C456.780823,699.801453 438.433228,724.536804 437.667511,758.243225 
	C437.216095,778.114624 433.246918,796.444702 423.896057,813.793762 
	C423.072876,815.321167 421.585541,816.779236 422.924072,819.268921 
M317.858978,485.309967 
	C299.537903,492.410370 288.952118,509.265167 292.536346,527.410522 
	C296.853607,549.266663 312.712830,562.200439 331.350525,562.946777 
	C355.500183,563.913757 379.656006,563.542114 403.809662,563.521545 
	C407.857849,563.518066 412.004242,563.453247 416.333130,562.130066 
	C389.421661,526.251465 391.608704,491.568268 419.549561,457.934418 
	C418.234772,455.638641 416.085754,455.059814 414.073975,454.354095 
	C389.430725,445.709473 363.340912,457.967133 354.428619,482.603149 
	C353.209503,485.973053 351.726837,486.238007 348.924927,485.136414 
	C338.838501,481.170837 328.722870,481.844757 317.858978,485.309967 
M393.410431,363.997375 
	C393.683746,377.160034 391.026611,390.886444 400.965332,402.178680 
	C401.816620,403.145905 402.050842,404.700775 403.737579,404.499969 
	C405.103302,404.337433 405.881805,403.278351 405.730804,402.040100 
	C405.144409,397.230988 407.551788,392.747559 406.728790,387.804352 
	C404.844391,376.486328 405.958405,365.209106 408.780426,354.140961 
	C416.324921,324.550964 433.231689,302.423218 461.085266,289.175598 
	C463.577942,287.990051 466.267792,287.090210 469.634460,287.745392 
	C468.462524,292.677612 469.763702,296.718475 473.565094,299.673065 
	C471.911133,302.527771 469.246643,303.352692 467.001648,304.650360 
	C450.758026,314.039581 438.617401,327.041931 431.540497,344.558685 
	C430.726776,346.572876 429.477051,348.918976 432.280212,350.158661 
	C435.044495,351.381165 435.639832,348.672089 436.298126,346.958649 
	C450.142517,310.925079 494.547668,289.763153 534.685242,305.977753 
	C537.591125,307.151672 540.378784,309.428436 544.933533,308.778351 
	C541.203613,299.521393 530.759216,300.343384 525.037476,294.591949 
	C528.228760,293.193359 532.721069,295.518494 533.814026,292.613495 
	C535.547363,288.006348 540.125427,286.067139 541.913635,281.518982 
	C544.473755,275.007507 542.673950,269.518799 535.979187,267.362732 
	C523.263794,263.267609 510.167480,262.150055 496.976807,263.254669 
	C463.338745,266.071594 435.965759,280.765137 415.192566,307.482880 
	C402.459106,323.860199 396.147003,342.764740 393.410431,363.997375 
M659.261292,728.778320 
	C649.820740,746.126038 650.729858,763.493164 659.020447,780.948792 
	C660.495789,784.055054 662.098083,784.718628 665.142395,782.891235 
	C672.276550,778.608765 679.600525,774.643738 686.760376,770.402771 
	C706.029419,758.989075 723.702576,745.437073 740.221680,730.340149 
	C742.459229,728.295288 744.124939,726.076782 743.291809,722.980286 
	C741.948059,717.986084 732.655334,710.962280 727.512756,710.819275 
	C725.109070,710.752441 722.465393,710.417297 721.298157,708.279968 
	C718.172302,702.555969 712.766113,701.699219 707.260254,701.314819 
	C685.549744,699.799255 670.496277,710.314331 659.261292,728.778320 
M359.329987,192.782043 
	C386.979492,179.232574 415.852264,169.334183 446.145294,163.661484 
	C452.514160,162.468842 458.901917,161.345413 465.216248,159.906082 
	C468.771545,159.095657 471.394684,156.634171 471.007904,152.831589 
	C470.587769,148.701035 467.283569,147.184250 463.434845,147.040802 
	C461.782318,146.979202 460.108185,147.182800 458.459137,147.388229 
	C432.034851,150.679993 406.586060,157.811188 381.904114,167.582596 
	C331.664673,187.472061 287.676483,216.914383 249.558640,255.175629 
	C247.778946,256.962006 246.068542,258.766541 245.520142,261.344086 
	C244.891327,264.299347 245.914688,266.623779 248.389679,268.235077 
	C250.830750,269.824310 253.383652,270.136780 255.779099,268.114655 
	C257.175659,266.935730 258.495667,265.657532 259.777863,264.353027 
	C288.669922,234.957092 322.226288,212.039307 359.329987,192.782043 
M745.122009,246.364243 
	C752.723389,253.353409 760.346252,260.319489 767.915588,267.343201 
	C770.906006,270.118134 773.959106,270.772736 777.224304,267.945007 
	C780.755127,264.887299 780.597778,260.579987 776.544617,256.683807 
	C763.572144,244.213669 750.226868,232.166580 735.987366,221.130463 
	C684.925110,181.555618 627.723022,156.289886 563.638428,147.011368 
	C558.492493,146.266312 554.820068,148.527985 554.314209,152.759415 
	C553.829468,156.814117 556.606140,159.833908 561.583923,160.588333 
	C564.870483,161.086456 568.196777,161.361694 571.457275,161.987106 
	C636.657654,174.493698 694.623535,201.948685 745.122009,246.364243 
M469.824097,616.488403 
	C468.013855,608.714905 467.459595,600.620911 464.465424,592.916321 
	C462.824585,593.669495 462.553314,594.570984 462.355286,595.571350 
	C459.676819,609.102966 456.942657,622.623718 454.308838,636.164001 
	C452.470032,645.617126 450.423370,655.049561 449.120178,664.580200 
	C448.276367,670.751160 450.744720,676.170959 456.361542,679.382812 
	C461.876373,682.536316 467.640106,682.386841 472.828888,678.600891 
	C478.128082,674.734375 480.080963,669.154724 479.055481,662.783875 
	C476.598419,647.519104 473.557739,632.362793 469.824097,616.488403 
M578.132324,677.710083 
	C582.605713,673.078979 584.235046,667.792114 582.892639,661.304260 
	C578.381042,639.499573 574.123840,617.642151 569.758057,595.807251 
	C569.507874,594.555725 569.512756,593.047913 567.422485,593.016418 
	C567.133850,593.512878 566.633606,594.033020 566.513000,594.629883 
	C562.007507,616.924683 557.630066,639.245911 553.008362,661.516479 
	C551.519043,668.692993 553.323303,674.657166 559.288635,678.548401 
	C565.132263,682.360107 571.543579,682.278931 578.132324,677.710083 
M606.001465,635.437256 
	C605.862854,639.578979 606.771179,643.342773 609.820923,646.385498 
	C614.285217,650.839600 620.453186,651.765564 626.323425,648.818848 
	C632.059082,645.939697 635.077271,639.852112 633.465759,632.258545 
	C630.504517,618.304321 627.029846,604.458862 623.742126,590.574463 
	C623.319519,588.789978 622.845581,586.735046 620.653320,586.523926 
	C618.239685,586.291443 617.721741,588.592896 617.282288,590.211060 
	C613.285767,604.925598 608.773682,619.512878 606.001465,635.437256 
M528.523926,625.971497 
	C525.610229,614.371582 522.726562,602.763977 519.752441,591.179565 
	C519.272522,589.310059 518.959534,586.731689 516.562439,586.619141 
	C513.749512,586.487183 513.464111,589.380066 512.938843,591.299133 
	C510.616272,599.784668 508.319763,608.288330 506.419922,616.875244 
	C504.955566,623.493591 502.100952,629.846375 502.288177,636.797302 
	C502.486481,644.158020 507.241699,649.554565 514.285950,650.525696 
	C521.343201,651.498596 527.617493,647.116577 529.742065,640.022827 
	C531.125549,635.403564 529.250427,631.178589 528.523926,625.971497 
M149.168884,464.380585 
	C155.734070,467.466095 159.517090,465.066254 160.445999,456.513397 
	C161.332306,448.352905 163.455872,440.503265 165.376450,432.587402 
	C169.623459,415.082916 175.374557,398.054169 181.744125,381.227051 
	C183.013412,377.873840 182.470001,375.191376 179.057770,373.814178 
	C175.699402,372.458771 172.840973,373.517914 170.918213,376.667542 
	C170.400970,377.514801 170.014893,378.451752 169.645508,379.378235 
	C159.501053,404.821808 152.156021,431.053040 147.523163,458.047424 
	C147.166885,460.123352 147.598877,462.015015 149.168884,464.380585 
M873.118896,465.638977 
	C877.802979,464.322601 877.959351,460.834656 877.372681,456.915405 
	C874.829529,439.924164 870.321106,423.396332 865.560242,406.933289 
	C862.739807,397.180206 859.681213,387.489868 855.674500,378.150665 
	C854.085632,374.447235 851.219116,372.079041 846.908997,373.792694 
	C842.612061,375.501129 842.839355,378.936157 844.244080,382.566315 
	C853.878662,407.464203 860.956482,433.064209 865.393250,459.395020 
	C866.043091,463.251892 867.958069,465.891266 873.118896,465.638977 
M422.898987,644.259399 
	C425.126801,640.342163 425.787933,636.223877 424.718384,631.797485 
	C421.483521,618.409729 418.334076,605.001160 415.076233,591.619019 
	C414.580139,589.581055 414.069061,587.311218 410.975372,587.041077 
	C409.607025,588.367798 408.720551,590.062195 408.224396,592.034912 
	C404.825714,605.547668 401.276489,619.024170 398.044495,632.576477 
	C396.341003,639.719360 399.291199,645.917114 405.219360,648.963257 
	C411.430420,652.154785 417.099457,650.809143 422.898987,644.259399 
M812.308044,322.230835 
	C818.380615,331.203949 823.889038,340.504150 828.828796,350.154236 
	C831.165527,354.719238 834.905884,356.098419 838.621521,353.916412 
	C842.808105,351.457825 842.014771,348.053833 840.220703,344.409882 
	C835.060913,333.929688 829.001709,323.976898 822.537598,314.274963 
	C815.426086,303.601227 807.912781,293.205658 799.340332,283.639404 
	C796.617310,280.600647 793.317383,279.296906 789.795349,282.608032 
	C786.443787,285.758881 787.705078,288.605255 790.226318,291.709351 
	C798.000000,301.280029 805.019958,311.411804 812.308044,322.230835 
M217.314865,315.875763 
	C223.070435,308.136261 228.831940,300.401154 234.579346,292.655579 
	C237.926392,288.144928 237.922256,285.304565 234.602676,282.768005 
	C231.357925,280.288605 227.711258,280.872192 224.648407,284.814636 
	C209.938080,303.749512 196.240173,323.352325 185.157303,344.696411 
	C183.117447,348.624908 183.141022,351.682068 187.092438,354.008545 
	C190.444641,355.982178 193.809586,354.749054 196.083130,350.508514 
	C202.380325,338.763153 209.795395,327.712708 217.314865,315.875763 
M499.865204,159.521469 
	C504.909241,165.225922 510.981934,167.158417 517.151062,165.022293 
	C523.047241,162.980682 527.301331,157.368668 527.653381,151.167175 
	C528.022827,144.661636 524.013367,138.539536 517.693115,135.958603 
	C511.884583,133.586639 505.529449,134.986649 501.314178,139.566772 
	C496.452881,144.848846 495.751587,152.078629 499.865204,159.521469 
M312.559601,701.922241 
	C303.348846,704.265259 295.134735,708.362305 288.415741,715.265320 
	C282.534180,721.307922 282.568970,722.453430 289.424194,727.361938 
	C289.829437,727.652100 290.270599,727.891541 290.688690,728.164368 
	C293.616241,730.074524 295.945862,729.807617 297.578949,726.421631 
	C299.436523,722.570312 302.475311,719.736145 305.839386,717.222656 
	C312.529480,712.224060 320.090149,710.306152 328.373230,710.687195 
	C331.060150,710.810791 334.132568,710.588684 334.601776,707.132996 
	C335.105560,703.422668 332.070740,702.368896 329.251251,701.746338 
	C323.989685,700.584473 318.669617,700.845947 312.559601,701.922241 
M607.857727,867.736328 
	C608.253418,869.002808 608.433594,870.394714 609.084473,871.512634 
	C611.206055,875.156677 614.277893,873.709473 616.977905,872.522949 
	C619.478271,871.424255 623.576721,871.248230 622.300110,866.794556 
	C620.099976,859.119141 618.075073,851.353760 614.710083,844.085815 
	C613.006836,840.406982 610.012817,838.349609 605.757446,840.192139 
	C601.896790,841.863708 600.952026,844.913696 602.147766,848.825745 
	C603.995117,854.869812 605.783203,860.932007 607.857727,867.736328 
M555.884766,863.838013 
	C556.719727,869.601562 557.573364,875.362488 558.382507,881.129639 
	C558.869324,884.599792 560.604797,886.186462 564.214661,885.296326 
	C565.988037,884.858948 567.815552,884.641052 569.589478,884.205566 
	C571.854309,883.649658 573.022583,882.179810 572.628601,879.803589 
	C571.378357,872.262573 570.198425,864.706116 568.736511,857.205383 
	C567.967957,853.261841 564.961731,851.844116 561.222656,852.274719 
	C557.353943,852.720276 555.304016,855.074707 555.337036,859.034241 
	C555.348022,860.358459 555.554749,861.681030 555.884766,863.838013 
M510.307922,855.952820 
	C506.425873,857.118408 505.429932,860.177307 505.386627,863.717102 
	C505.315460,869.531311 505.376923,875.347107 505.378113,881.162231 
	C505.379669,888.832581 505.401581,888.855652 513.222595,888.803711 
	C513.887146,888.799255 514.553894,888.759521 515.215942,888.798279 
	C518.332214,888.980591 519.826233,887.664612 519.683777,884.408447 
	C519.364502,877.110596 519.281189,869.801392 518.892090,862.507996 
	C518.634705,857.683044 515.843689,855.409241 510.307922,855.952820 
M416.646942,869.091248 
	C418.498688,862.887390 420.371948,856.689819 422.195374,850.477661 
	C423.656250,845.500793 422.262634,842.237366 418.096191,840.699219 
	C414.388458,839.330444 411.233917,841.178894 409.508789,846.021973 
	C407.336090,852.121582 405.365021,858.292786 403.273834,864.421753 
	C402.192322,867.591553 401.327057,870.372192 405.741852,872.034180 
	C412.439392,874.555603 413.942871,874.443298 416.646942,869.091248 
M452.330841,881.997742 
	C455.161530,886.065918 459.668793,885.802856 463.491882,885.231506 
	C466.708832,884.750732 466.307526,880.835999 466.720367,878.113037 
	C467.614868,872.213257 468.472809,866.307861 469.351715,860.405762 
	C469.986877,856.140442 467.968445,853.005737 463.933777,852.420837 
	C459.889893,851.834656 457.053833,853.450500 456.294342,857.662292 
	C454.881927,865.494812 453.600616,873.351013 452.330841,881.997742 
M853.084839,648.647949 
	C856.145813,648.152222 857.599304,645.882019 858.472900,643.315674 
	C860.883545,636.234070 863.187561,629.113586 865.375610,621.960083 
	C866.226440,619.178223 865.671082,616.610718 862.766174,615.171509 
	C859.897156,613.750000 857.195251,613.986267 855.198669,616.666687 
	C854.125427,618.107544 853.237671,619.769714 852.635498,621.463318 
	C850.463013,627.572083 848.408020,633.723694 846.383728,639.883789 
	C844.401611,645.915405 845.668213,647.743530 853.084839,648.647949 
M162.720428,615.154236 
	C160.420929,616.780212 158.638779,618.679016 159.709702,621.792542 
	C162.292511,629.301819 164.894211,636.804871 167.547821,644.289368 
	C168.876282,648.036316 171.665375,649.678284 175.355682,648.223267 
	C178.847183,646.846497 180.283279,643.948242 179.003571,640.130676 
	C176.740952,633.381042 174.564774,626.600037 172.162735,619.900208 
	C170.716110,615.865173 167.973312,613.583496 162.720428,615.154236 
M836.002319,675.505310 
	C832.455383,673.387512 828.948181,671.199036 825.348694,669.174744 
	C822.583984,667.619873 820.156860,668.621582 819.436707,671.430542 
	C818.612549,674.644897 813.545715,677.863831 818.390076,681.364990 
	C822.797607,684.550598 827.581909,687.247314 832.349426,689.890320 
	C835.232422,691.488708 838.245605,691.133179 840.410706,688.428894 
	C842.637024,685.648010 842.553162,682.540833 840.482727,679.706360 
	C839.430115,678.265137 837.909180,677.166016 836.002319,675.505310 
M208.721115,677.238953 
	C208.006226,675.389648 207.476135,673.438721 206.529449,671.716858 
	C205.355042,669.580750 203.406479,667.690979 200.890533,668.867493 
	C195.206039,671.525574 189.462311,674.286011 185.076370,678.942078 
	C182.684601,681.481201 182.308304,684.732483 184.543640,687.592590 
	C186.829834,690.517700 189.911804,691.396423 193.351135,689.424744 
	C198.093155,686.706238 202.790970,683.910706 207.520554,681.170349 
	C208.828781,680.412354 209.489426,679.433777 208.721115,677.238953 
M865.773865,587.628723 
	C869.265625,588.998291 872.840820,588.904541 874.054993,585.000610 
	C875.813171,579.347839 876.758301,573.422852 877.773315,567.565918 
	C878.317139,564.427673 876.232849,562.638428 873.485596,561.712463 
	C870.733093,560.784668 868.225708,561.800842 867.096436,564.194458 
	C864.252197,570.222839 863.412476,576.839905 862.468262,583.371216 
	C862.201721,585.214661 863.757812,586.300842 865.773865,587.628723 
M157.728790,562.784119 
	C152.589310,560.339600 148.128204,562.016357 148.221146,566.815674 
	C148.342712,573.091675 149.551376,579.331360 151.609955,585.294678 
	C152.607941,588.185730 155.203583,589.172302 158.116837,588.514648 
	C160.941895,587.876953 163.189560,586.187927 162.739288,582.993042 
	C161.799179,576.322388 161.473526,569.479248 157.728790,562.784119 
z"/>
<path fill="#000000" opacity="1.000000" stroke="none" 
	d="
M736.036743,949.887329 
	C732.066895,954.594360 727.182251,956.113647 721.558838,956.112183 
	C583.063904,956.076111 444.568970,956.073181 306.074036,956.016174 
	C302.760956,956.014832 299.391876,955.747742 296.146912,955.107666 
	C289.651031,953.826111 284.611542,947.203369 284.708038,940.554688 
	C284.803680,933.964478 289.263855,928.872925 296.297974,927.573303 
	C298.573425,927.152893 300.929962,927.013062 303.249481,927.012207 
	C443.077515,926.961609 582.905518,926.941956 722.733582,926.904419 
	C729.153259,926.902710 734.751831,928.733643 737.896423,934.670105 
	C740.616089,939.804321 740.073364,944.975891 736.036743,949.887329 
z"/>
<path fill="#000000" opacity="1.000000" stroke="none" 
	d="
M791.450989,945.199768 
	C785.269531,953.249512 777.785156,955.680115 769.889648,952.454712 
	C762.693970,949.515259 758.026184,941.760498 758.851624,934.116577 
	C759.721375,926.062439 765.444458,919.537842 773.195435,918.283447 
	C779.969238,917.187195 785.760437,919.471375 789.946960,924.882202 
	C794.736328,931.072083 795.652283,937.825745 791.450989,945.199768 
z"/>
<path fill="#000000" opacity="1.000000" stroke="none" 
	d="
M258.763184,922.133911 
	C272.208923,936.155945 261.874023,951.156128 250.554459,953.494812 
	C241.442657,955.377502 232.595200,949.376953 230.588257,939.792603 
	C228.526337,929.945740 234.270538,920.550720 243.398117,918.727295 
	C248.902649,917.627563 253.986664,918.303284 258.763184,922.133911 
z"/>
<path fill="#000000" opacity="1.000000" stroke="none" 
	d="
M127.701035,226.179932 
	C132.217850,216.682999 140.498199,213.223877 149.139130,216.880600 
	C157.233902,220.306213 160.982193,229.216614 157.867920,237.630630 
	C154.859634,245.758316 146.447617,250.254501 138.759766,247.843872 
	C129.324509,244.885315 124.996346,236.643219 127.701035,226.179932 
z"/>
<path fill="#000000" opacity="1.000000" stroke="none" 
	d="
M896.622498,224.764069 
	C900.534546,235.541092 896.257202,244.756714 886.317261,247.721359 
	C877.793640,250.263580 868.399658,244.421112 866.251831,235.242004 
	C864.497559,227.744507 868.888062,219.482193 876.165771,216.585495 
	C884.034119,213.453720 891.759888,216.437119 896.622498,224.764069 
z"/>
<path fill="#000000" opacity="1.000000" stroke="none" 
	d="
M858.198608,941.849304 
	C853.452271,948.019287 847.646545,949.489563 843.133606,945.984192 
	C839.269775,942.983215 838.155518,937.659302 840.521240,933.503418 
	C843.012146,929.127563 847.990601,927.630066 853.045044,929.736328 
	C857.810547,931.722168 859.733093,935.981384 858.198608,941.849304 
z"/>
<path fill="#000000" opacity="1.000000" stroke="none" 
	d="
M170.173859,929.702515 
	C177.324585,927.774841 182.977722,930.342957 184.163971,935.725159 
	C185.393036,941.301636 181.835434,946.798523 176.412628,947.701843 
	C171.997772,948.437317 167.521088,945.874634 165.643082,941.390991 
	C163.520676,936.323975 165.817139,932.770813 170.173859,929.702515 
z"/>
<path fill="#000000" opacity="1.000000" stroke="none" 
	d="
M208.690552,946.487244 
	C202.906296,943.540100 201.012314,938.219666 203.811798,933.761292 
	C206.378433,929.673889 212.038483,928.537476 215.994934,931.385742 
	C219.440125,933.865967 220.061508,937.380737 218.835373,941.116699 
	C217.312439,945.756836 213.805206,947.397644 208.690552,946.487244 
z"/>
<path fill="#000000" opacity="1.000000" stroke="none" 
	d="
M812.028320,929.925537 
	C819.834717,932.074524 822.697510,938.341675 818.619507,943.636597 
	C816.658691,946.182678 813.964539,947.416016 810.759521,946.757080 
	C807.372681,946.060547 805.171570,943.913574 804.549927,940.444641 
	C803.929443,936.981995 804.457947,933.750977 807.533752,931.583069 
	C808.705933,930.756897 810.257507,930.468811 812.028320,929.925537 
z"/>
<path fill="#000000" opacity="1.000000" stroke="none" 
	d="
M246.119476,618.255981 
	C256.120117,602.669189 268.198517,589.158081 278.864624,574.841675 
	C281.489166,575.606873 282.340759,577.343750 283.394989,578.779724 
	C291.571045,589.916382 299.734131,601.063049 307.815765,612.268311 
	C312.033020,618.115540 315.361908,624.454041 317.086700,631.499146 
	C322.269440,652.668701 308.466644,673.252075 286.092773,677.826172 
	C261.231079,682.908752 239.040588,664.562988 239.729294,639.415405 
	C239.933716,631.950317 242.240524,625.039612 246.119476,618.255981 
M271.182465,612.652893 
	C265.935272,619.320740 260.506287,625.931091 258.672668,634.493347 
	C258.048218,637.409119 256.913025,641.214233 261.562866,642.134155 
	C265.613007,642.935425 268.261169,641.417480 268.583313,636.791504 
	C268.941437,631.649597 271.635559,627.744568 275.798035,624.841003 
	C276.988220,624.010742 278.466736,622.796631 279.741699,624.445251 
	C283.239380,628.967957 286.038269,625.607483 288.412537,623.457275 
	C291.299225,620.842957 291.169800,617.498718 288.432495,614.654419 
	C285.994202,612.120667 283.882446,609.511292 282.808929,606.049683 
	C282.365753,604.620667 281.605743,602.871765 279.352051,602.611694 
	C276.188843,605.191467 274.520996,609.159668 271.182465,612.652893 
z"/>
<path fill="#000000" opacity="1.000000" stroke="none" 
	d="
M736.839478,675.416138 
	C717.627563,669.569092 706.478210,656.775757 704.078552,637.469604 
	C701.667603,618.071228 709.935425,602.793884 726.309753,592.672485 
	C753.280762,576.001038 791.105713,597.155945 792.264099,629.146057 
	C793.200806,655.014648 775.815002,674.746094 750.064270,677.008057 
	C745.696106,677.391724 741.428955,676.738831 736.839478,675.416138 
M772.431885,616.107483 
	C767.574158,609.326904 761.134277,604.770142 752.908875,603.337280 
	C739.159851,600.942078 725.867493,608.362366 720.952576,620.801758 
	C715.980347,633.386353 720.633240,648.740845 731.694214,656.249207 
	C743.345337,664.158081 758.275574,662.723511 768.683472,652.695068 
	C778.647888,643.093933 780.299072,628.879333 772.431885,616.107483 
z"/>
<path fill="#000000" opacity="1.000000" stroke="none" 
	d="
M254.979034,381.170135 
	C250.589310,379.465057 246.537125,377.951294 242.533890,376.317596 
	C237.319077,374.189453 235.475006,370.754395 236.979797,366.209991 
	C238.289703,362.254120 243.261688,359.217499 247.484665,360.722565 
	C257.971558,364.459991 268.362366,368.501770 278.623871,372.820282 
	C282.937714,374.635742 284.550659,379.972961 282.786285,383.873779 
	C281.071320,387.665253 276.893036,389.318756 272.137695,387.676880 
	C266.479431,385.723297 260.933136,383.445435 254.979034,381.170135 
z"/>
<path fill="#000000" opacity="1.000000" stroke="none" 
	d="
M398.412079,245.538513 
	C395.551849,240.448166 392.745483,235.738495 390.269012,230.861328 
	C388.142883,226.674240 389.272491,222.378494 392.635437,220.343552 
	C396.447327,218.036957 401.358276,219.156006 403.848480,223.443054 
	C408.682129,231.764526 413.317291,240.207886 417.795074,248.726700 
	C420.029297,252.977295 418.531250,257.293976 414.635986,259.385010 
	C410.562042,261.571960 406.993927,260.400574 404.244537,255.815567 
	C402.282074,252.542892 400.481750,249.173004 398.412079,245.538513 
z"/>
<path fill="#000000" opacity="1.000000" stroke="none" 
	d="
M622.367310,239.328888 
	C619.397705,244.942230 616.699219,250.286194 613.769714,255.500351 
	C610.970276,260.482880 606.651978,262.065125 602.665039,259.855438 
	C598.762207,257.692352 597.688477,253.052612 600.352417,248.097824 
	C604.838013,239.754608 609.477844,231.491150 614.213867,223.287170 
	C616.461975,219.392929 620.367371,218.291199 624.000793,220.116028 
	C627.450256,221.848511 629.279053,226.151215 627.652466,229.890549 
	C626.270142,233.068329 624.266235,235.975754 622.367310,239.328888 
z"/>
<path fill="#000000" opacity="1.000000" stroke="none" 
	d="
M234.003159,505.308228 
	C229.687302,505.308044 225.866684,505.402802 222.052841,505.282562 
	C217.240860,505.130859 213.938080,501.578125 214.101242,496.942383 
	C214.248306,492.763977 217.326370,489.853790 222.004837,489.700073 
	C230.128510,489.433136 238.255035,489.162109 246.381775,489.108429 
	C253.172363,489.063538 256.295166,491.632355 256.335388,496.828278 
	C256.377899,502.318756 252.988297,505.243835 246.452179,505.300568 
	C242.468872,505.335114 238.485016,505.307465 234.003159,505.308228 
z"/>
<path fill="#000000" opacity="1.000000" stroke="none" 
	d="
M220.224030,543.809570 
	C230.810776,541.821533 241.097488,542.615906 251.325104,543.175903 
	C254.712402,543.361328 257.216766,546.161865 257.426910,550.047607 
	C257.642334,554.031067 255.698273,556.684265 252.098907,558.174561 
	C249.897888,559.085938 247.549637,559.023132 245.219955,559.017029 
	C238.907028,559.000549 232.594086,558.978516 226.281174,558.983398 
	C222.457825,558.986328 218.649673,558.544678 217.209000,554.388062 
	C215.886124,550.571350 216.384094,546.814819 220.224030,543.809570 
z"/>
<path fill="#000000" opacity="1.000000" stroke="none" 
	d="
M777.344055,558.931641 
	C774.576477,558.722229 772.158142,558.860291 770.113892,557.572510 
	C766.853638,555.518677 766.091797,552.274536 766.889099,548.828613 
	C767.763000,545.051758 770.341675,542.778320 774.372559,542.742188 
	C782.519165,542.669128 790.667664,542.640808 798.813721,542.737244 
	C803.813232,542.796448 806.903015,545.695496 807.101501,550.163269 
	C807.302979,554.695984 804.113098,558.543030 799.244019,558.761597 
	C792.108398,559.082031 784.950500,558.906250 777.344055,558.931641 
z"/>
<path fill="#000000" opacity="1.000000" stroke="none" 
	d="
M333.019531,334.332275 
	C341.436462,335.946228 348.945923,339.160736 356.520386,342.069000 
	C361.064056,343.813599 363.100525,348.853058 361.684418,352.649689 
	C360.060150,357.004395 356.471710,358.597717 350.975677,356.942078 
	C344.459320,354.979126 338.026276,352.735229 331.580109,350.545380 
	C327.620758,349.200317 324.660675,346.576385 325.013031,342.221680 
	C325.362396,337.903259 328.024567,334.943054 333.019531,334.332275 
z"/>
<path fill="#000000" opacity="1.000000" stroke="none" 
	d="
M449.135101,220.709930 
	C448.011230,217.173279 447.039276,214.010986 446.039642,210.857483 
	C444.628784,206.406693 446.150879,202.339447 449.837677,200.766541 
	C453.947052,199.013321 458.934814,200.726440 460.487457,205.251556 
	C463.059326,212.747055 465.264557,220.402420 467.028015,228.126541 
	C467.886169,231.885254 465.575531,234.955307 461.870544,236.179230 
	C458.311462,237.354980 455.296844,236.080795 453.412750,232.767899 
	C451.345856,229.133575 450.441284,225.057770 449.135101,220.709930 
z"/>
<path fill="#000000" opacity="1.000000" stroke="none" 
	d="
M569.717590,202.255035 
	C572.049927,205.057434 572.495605,207.780014 571.443726,210.913971 
	C569.282410,217.353378 567.394226,223.885284 565.188660,230.308731 
	C563.405090,235.503174 559.923523,237.840408 556.072205,236.832367 
	C551.940308,235.750885 549.591248,231.693527 550.913452,226.413589 
	C552.720947,219.195786 554.852295,212.027802 557.378967,205.031387 
	C559.370544,199.516571 563.992676,198.584137 569.717590,202.255035 
z"/>
<path fill="#000000" opacity="1.000000" stroke="none" 
	d="
M328.624603,409.196625 
	C327.862762,402.169067 330.440796,398.957214 336.912964,398.791504 
	C343.237732,398.629517 349.573334,398.619507 355.897583,398.789032 
	C361.396973,398.936432 365.260315,402.411377 365.122742,406.674713 
	C364.977020,411.190521 361.281006,414.303467 355.834808,414.355255 
	C349.672974,414.413849 343.509949,414.341034 337.347809,414.379944 
	C333.541504,414.403961 330.513641,413.138580 328.624603,409.196625 
z"/>
<path fill="#000000" opacity="1.000000" stroke="none" 
	d="
M283.047119,800.257446 
	C278.623749,803.832947 275.646973,801.248047 272.912567,798.381775 
	C269.957672,795.284302 270.523865,792.265991 273.258911,789.135193 
	C276.206238,785.761353 278.690216,781.985413 281.594818,778.570801 
	C285.108856,774.439819 289.171204,774.064331 292.922363,777.226624 
	C296.160614,779.956482 296.135376,783.459412 292.797058,787.795715 
	C289.655060,791.877014 286.477509,795.930908 283.047119,800.257446 
z"/>
<path fill="#000000" opacity="1.000000" stroke="none" 
	d="
M319.128998,821.503540 
	C314.458344,822.641846 311.349396,820.541565 309.067902,817.269104 
	C306.911621,814.176392 309.197723,811.598022 310.798492,809.109253 
	C312.235809,806.874634 313.666077,804.609802 315.351898,802.566467 
	C318.104706,799.229797 322.739838,798.697327 326.048187,801.239319 
	C329.482819,803.878357 330.118561,807.045410 327.757324,810.830017 
	C325.378296,814.643250 323.158813,818.554199 319.128998,821.503540 
z"/>
<path fill="#000000" opacity="1.000000" stroke="none" 
	d="
M713.240051,807.844727 
	C715.739563,811.807434 718.773438,815.425903 713.896912,819.396057 
	C709.882324,822.664490 706.424866,822.551880 703.136108,818.572083 
	C700.935547,815.909119 699.080078,812.938843 697.263489,809.987061 
	C695.484985,807.097046 695.622437,804.282654 698.478333,802.048096 
	C701.484070,799.696228 704.789185,798.723083 707.946594,801.488342 
	C709.907715,803.206055 711.358948,805.506042 713.240051,807.844727 
z"/>
<path fill="#000000" opacity="1.000000" stroke="none" 
	d="
M742.171021,792.679199 
	C743.441284,794.150391 744.440796,796.085938 746.340759,794.538574 
	C748.006531,793.182007 747.728394,791.245605 746.547485,789.591492 
	C744.428223,786.623169 742.256348,783.690491 740.039917,780.793823 
	C737.857239,777.941284 734.914612,778.494690 731.799316,779.581482 
	C733.627869,775.268066 738.395813,773.914978 741.790344,776.883667 
	C746.553955,781.049683 749.992310,786.439026 753.649963,791.557251 
	C755.233887,793.773682 753.832642,796.040100 752.181946,797.833923 
	C749.962036,800.246338 747.395142,802.065125 743.875244,801.233093 
	C739.633057,800.230286 734.080322,790.976746 734.864014,785.981934 
	C738.555725,786.744202 740.110168,789.756470 742.171021,792.679199 
z"/>
<path fill="#000000" opacity="1.000000" stroke="none" 
	d="
M811.016418,732.987854 
	C806.884644,732.450684 803.728271,730.030151 800.720886,727.436279 
	C798.467957,725.493042 798.309692,723.437073 801.689514,720.548157 
	C802.754639,726.612244 809.185120,727.290466 810.883423,732.695435 
	C810.982971,733.025452 811.004089,732.999451 811.016418,732.987854 
z"/>
<path fill="#000000" opacity="1.000000" stroke="none" 
	d="
M562.472900,789.110718 
	C557.653137,799.758484 549.769958,804.676086 538.632996,804.268860 
	C527.960632,803.878662 521.168152,798.864746 517.562439,788.921997 
	C516.619751,786.322388 516.554626,783.687988 516.633057,781.040649 
	C517.151184,763.557068 516.528625,746.062683 516.334717,728.596252 
	C516.099304,707.397156 536.499817,701.468140 550.442017,708.072937 
	C558.517761,711.898621 563.008240,718.689270 564.476990,727.523071 
	C564.909729,730.125977 564.079163,731.333862 561.425598,731.293274 
	C558.760071,731.252502 556.087708,731.146973 553.429382,731.284241 
	C550.493591,731.435974 548.770630,730.217468 547.825195,727.442993 
	C546.204895,722.687744 542.785522,720.367859 537.797913,721.289368 
	C532.669922,722.236877 532.337158,726.461731 532.252930,730.589539 
	C532.178894,734.219788 532.237549,737.852844 532.237549,741.854065 
	C536.823669,741.499146 540.807190,740.309265 544.964722,740.686462 
	C555.126465,741.608337 561.898560,747.663269 562.857300,756.961670 
	C563.017822,758.518188 563.205811,760.551636 561.486755,760.755493 
	C556.817810,761.309265 551.812439,762.836731 547.608948,759.513062 
	C544.104980,756.742554 540.666260,755.850952 536.553223,757.825989 
	C532.578369,759.734680 531.965271,763.111511 532.089783,767.023682 
	C532.238098,771.685059 532.106018,776.354736 532.198242,781.018799 
	C532.277588,785.035400 534.353455,787.639221 538.274353,788.475708 
	C542.190247,789.311096 545.122925,787.845459 546.833618,784.142395 
	C546.973328,783.840027 547.085693,783.508972 547.290161,783.255188 
	C548.969727,781.170532 547.619324,777.399231 550.449097,776.276367 
	C553.880676,774.914673 557.697632,775.863342 561.345154,775.756531 
	C563.880005,775.682312 565.096313,776.843445 564.546692,779.473999 
	C563.901367,782.562500 563.254700,785.650696 562.472900,789.110718 
z"/>
<path fill="#000000" opacity="1.000000" stroke="none" 
	d="
M484.781067,788.670898 
	C489.865387,788.065247 491.627472,784.886414 491.831696,780.675476 
	C492.025055,776.688599 491.987946,772.677795 491.808990,768.688477 
	C491.525238,762.362000 488.328033,759.721619 482.048157,760.365723 
	C475.730377,761.013733 475.701416,760.987610 475.640991,754.551453 
	C475.637878,754.218323 475.640411,753.885193 475.637421,753.552063 
	C475.573273,746.413269 475.573212,746.413208 482.869934,746.756042 
	C489.560455,747.070374 491.681183,745.135620 491.736694,738.548340 
	C491.766174,735.051575 491.834839,731.543579 491.604126,728.059326 
	C491.358917,724.356445 489.437622,721.773987 485.606445,721.111145 
	C481.675903,720.431152 478.839142,721.929321 477.099304,725.609558 
	C476.210449,727.489685 476.436554,730.422791 473.939758,730.929321 
	C469.863525,731.756470 465.646606,731.577576 461.522858,730.995178 
	C459.535522,730.714417 459.742249,728.859985 459.822571,727.369812 
	C460.512085,714.580505 471.357330,705.494629 485.683228,705.681458 
	C498.506836,705.848633 507.035431,714.456909 507.378723,727.473694 
	C507.514648,732.627380 507.970276,737.776062 507.355194,742.926880 
	C507.335541,743.091431 507.405853,743.290894 507.336151,743.421814 
	C501.356964,754.654480 509.962494,765.580505 508.051025,776.741394 
	C507.688599,778.857605 507.933533,781.071045 507.678070,783.213379 
	C505.915924,797.990906 497.010803,805.295959 482.132446,804.239319 
	C469.164276,803.318359 459.222565,792.594788 459.326294,779.571350 
	C459.333832,778.623474 459.472870,777.148865 460.058319,776.818359 
	C464.062195,774.558594 468.475525,775.892639 472.714539,775.798218 
	C475.785614,775.729858 475.661072,778.697021 476.022675,780.597778 
	C476.935303,785.394897 478.920502,788.753052 484.781067,788.670898 
z"/>
<path fill="#000000" opacity="1.000000" stroke="none" 
	d="
M522.382385,279.680511 
	C525.687256,280.402435 528.601379,280.999207 531.513428,281.605988 
	C533.571960,282.034912 535.530640,282.555695 534.535950,285.737213 
	C531.601318,285.941162 528.884521,284.777740 526.095825,284.047485 
	C524.665649,283.673035 523.241821,283.127411 521.787781,283.015778 
	C514.698669,282.471252 514.093445,283.381195 516.995972,289.757202 
	C517.316406,290.461151 517.351807,291.294861 517.601990,292.449890 
	C514.135071,292.885315 513.042786,290.550476 512.049011,288.425537 
	C510.955383,286.087036 511.541687,283.891937 513.438110,282.102142 
	C515.858948,279.817413 518.552246,278.429932 522.382385,279.680511 
z"/>
<path fill="#000000" opacity="1.000000" stroke="none" 
	d="
M749.760986,613.658386 
	C759.589111,615.375610 766.264954,622.332092 767.138306,631.328491 
	C767.838379,638.539917 762.247742,646.371704 754.183960,649.593750 
	C746.979614,652.472534 740.702820,650.557312 735.435242,645.473267 
	C730.065918,640.291016 727.693787,633.961792 730.242920,626.461609 
	C732.715332,619.187195 737.720215,614.878113 745.341919,613.733948 
	C746.643677,613.538574 747.993103,613.661316 749.760986,613.658386 
M749.934387,627.375427 
	C746.254761,626.529663 743.637268,627.910339 742.672241,631.491150 
	C741.910950,634.316223 743.622437,636.337952 746.162354,637.260620 
	C749.000977,638.291748 751.479553,637.277161 752.901611,634.633240 
	C754.490784,631.678711 753.701294,629.214966 749.934387,627.375427 
z"/>
</svg>